<svg width="140" height="51" fill="none" xmlns="http://www.w3.org/2000/svg">
    <g clip-path="url(#a)">
    <path fill-rule="evenodd" clip-rule="evenodd" d="M0 25.5c0-13.255 10.745-24 24-24s24 10.745 24 24-10.745 24-24 24-24-10.745-24-24Zm24 22.44c12.394 0 22.44-10.048 22.44-22.44C46.44 13.108 36.391 3.06 24 3.06 11.608 3.06 1.56 13.109 1.56 25.5c0 12.392 10.046 22.44 22.44 22.44Z" fill="#fff"/><path d="M35.632 15.318c.326.35.796.914 1.06 1.257l4.86-3.085c-.243-.317-.63-.8-.92-1.14l-3.077 2.035-.21.18.156-.228 1.36-2.712-.962-.961-2.713 1.359-.229.156.182-.21 2.036-3.076a29.694 29.694 0 0 0-1.141-.923l-3.085 4.856c.391.3.906.742 1.235 1.042l2.904-1.507.186-.137-.137.187-1.505 2.907ZM24.604 9.164l1.328-2.975.084-.264-.024.275.14 3.975c.466.044.947.11 1.421.188l-.216-5.887a29.48 29.48 0 0 0-1.984-.154L24.045 7.57l-.047.241-.046-.24-1.307-3.248c-.66.028-1.32.08-1.984.154l-.216 5.887a21.07 21.07 0 0 1 1.421-.188l.14-3.975-.024-.275.085.264 1.328 2.975h1.209Z" fill="#fff"/><path fill-rule="evenodd" clip-rule="evenodd" d="M13.865 13.856c.767-.809 1.202-1.743.434-2.635-.417-.484-1.119-.59-1.7-.351l-.058.022.018-.05c.087-.23.142-.964-.483-1.47a1.446 1.446 0 0 0-1.074-.3c-.721.073-1.276.566-2.786 2.25A36.378 36.378 0 0 0 6.7 13.15l4.147 3.934a110.288 110.288 0 0 1 2.394-2.573l.625-.655Zm-5.412-.963c.836-1.021 1.723-1.949 2.125-2.315.127-.116.266-.232.434-.277.272-.075.553.119.616.398.064.28-.113.547-.309.768-.442.498-2.061 2.192-2.061 2.192l-.805-.766Zm3.717-.66c-.515.533-2.093 2.201-2.093 2.201l.841.797 2.092-2.238c.16-.173.355-.4.408-.639a.492.492 0 0 0-.212-.52c-.178-.118-.377-.1-.559-.01-.141.069-.272.197-.477.409Z" fill="#fff"/><path d="M38.232 25.5H24V11.268c7.866 0 14.232 6.366 14.232 14.232ZM24 25.5v14.232c-7.866 0-14.232-6.367-14.232-14.232H24Z" fill="#fff"/><path d="M24 11.268V25.5H9.768c0-7.866 6.366-14.232 14.232-14.232ZM38.232 25.5c0 7.865-6.366 14.232-14.232 14.232V25.5h14.232Z" fill="#0066B1"/></g><g clip-path="url(#b)"><path d="M123.004 13.391v10.687l6.293-10.687h9.823v25.855h-9.19l.001-10.687-6.301 10.687h-8.68V28.56l-6.301 10.687H97.768l15.234-25.855h10.002Z" fill="#fff"/><path d="M91.239 13.391 76.004 39.246H65.121l15.235-25.855h10.883Z" fill="#0066B1"/><path d="M102.122 13.391 86.885 39.246H76.004l15.235-25.855h10.883Z" fill="#003D78"/><path d="M113.003 13.391 97.768 39.246H86.885l15.236-25.855h10.882Z" fill="#E22718"/></g><defs><clipPath id="a"><path fill="#fff" transform="translate(0 1.5)" d="M0 0h48v48H0z"/></clipPath><clipPath id="b"><path fill="#fff" transform="translate(65.121 13.391)" d="M0 0h74v25.855H0z"/></clipPath></defs>
</svg>
